<svg width="375" height="132" viewBox="0 0 375 132" fill="none" xmlns="http://www.w3.org/2000/svg">
<path fill-rule="evenodd" clip-rule="evenodd" d="M375 65.9679C375 102.394 345.451 131.923 309 131.923C285.855 131.923 265.492 120.017 253.711 102H264.851C275.304 114.775 291.199 122.929 309 122.929C340.48 122.929 366 97.4268 366 65.9679C366 34.5089 340.48 9.00642 309 9.00642C292.603 9.00642 277.824 15.9249 267.425 27H255.746C267.756 10.6363 287.136 0.0125122 309 0.0125122C345.451 0.0125122 375 29.5417 375 65.9679Z" fill="#159300"/>
<path d="M26.568 89.72C32.76 89.72 37.944 87.992 42.264 84.464C46.512 81.008 48.672 76.688 48.672 71.576V35H37.8V69.632C37.8 72.584 36.648 75.104 34.488 77.12C32.328 79.208 29.664 80.216 26.568 80.216C23.4 80.216 20.736 79.208 18.576 77.12C16.416 75.104 15.336 72.584 15.336 69.632V35H4.464V71.576C4.464 76.688 6.552 81.008 10.872 84.464C15.12 87.992 20.376 89.72 26.568 89.72ZM76.4843 79.568C75.6203 80.432 74.5403 80.864 73.2443 80.864C72.0923 80.864 71.1562 80.504 70.5083 79.784C69.7883 79.064 69.5003 77.912 69.5003 76.472V60.848H78.5003V53H69.5003V40.76H58.9883V53H54.6683V60.848H58.9883V76.4C58.9883 80.576 60.1403 83.816 62.5883 86.192C64.9643 88.568 68.5643 89.72 73.3163 89.72C76.7003 89.72 79.4363 88.856 81.5243 87.056L76.4843 79.568ZM91.5086 46.808C93.0926 46.808 94.5326 46.232 95.6846 45.08C96.8366 43.928 97.4846 42.56 97.4846 40.904C97.4846 39.32 96.8366 37.88 95.6846 36.728C94.5326 35.576 93.0926 35 91.5086 35C89.9246 35 88.4846 35.576 87.3326 36.728C86.1806 37.88 85.6046 39.32 85.6046 40.904C85.6046 42.56 86.1806 43.928 87.3326 45.08C88.4846 46.232 89.9246 46.808 91.5086 46.808ZM86.2526 89H96.7646V53H86.2526V89ZM120.961 89.72C124.345 89.72 127.081 88.856 129.169 87.056L124.129 79.568C123.265 80.432 122.185 80.864 120.889 80.864C119.737 80.864 118.801 80.504 118.153 79.784C117.433 79.064 117.145 77.912 117.145 76.472V35H106.633V76.4C106.633 80.576 107.785 83.816 110.233 86.192C112.609 88.568 116.209 89.72 120.961 89.72ZM138.477 46.808C140.061 46.808 141.501 46.232 142.653 45.08C143.805 43.928 144.453 42.56 144.453 40.904C144.453 39.32 143.805 37.88 142.653 36.728C141.501 35.576 140.061 35 138.477 35C136.893 35 135.453 35.576 134.301 36.728C133.149 37.88 132.573 39.32 132.573 40.904C132.573 42.56 133.149 43.928 134.301 45.08C135.453 46.232 136.893 46.808 138.477 46.808ZM133.221 89H143.733V53H133.221V89ZM171.898 79.568C171.034 80.432 169.954 80.864 168.658 80.864C167.506 80.864 166.57 80.504 165.922 79.784C165.202 79.064 164.914 77.912 164.914 76.472V60.848H173.914V53H164.914V40.76H154.402V53H150.082V60.848H154.402V76.4C154.402 80.576 155.554 83.816 158.002 86.192C160.378 88.568 163.978 89.72 168.73 89.72C172.114 89.72 174.85 88.856 176.938 87.056L171.898 79.568ZM196.355 52.28C192.611 52.28 189.443 52.784 186.995 53.792C184.475 54.8 182.243 56.384 180.227 58.544L186.491 64.52C188.867 61.64 191.819 60.2 195.347 60.2C197.363 60.2 199.019 60.704 200.387 61.64C201.755 62.648 202.475 64.088 202.475 66.032V69.128L197.363 68.336C191.819 67.472 187.499 68.12 184.403 70.208C181.307 72.296 179.795 75.104 179.795 78.704C179.795 82.088 180.875 84.752 183.035 86.768C185.195 88.784 188.003 89.72 191.459 89.72C195.707 89.72 199.667 88.352 203.339 85.472L203.843 89H212.699V66.104C212.699 61.496 211.187 58.04 208.235 55.736C205.211 53.432 201.251 52.28 196.355 52.28ZM190.739 78.128C190.739 76.688 191.387 75.536 192.755 74.744C194.123 74.024 196.427 73.952 199.595 74.528L202.475 75.104V78.776C200.027 80.936 197.579 82.016 195.131 82.016C193.835 82.016 192.755 81.728 191.963 81.008C191.099 80.288 190.739 79.352 190.739 78.128ZM241.397 52.28C237.221 52.28 233.765 54.368 231.101 58.544L230.525 53H221.093V89H231.605V71C231.605 68.12 232.397 65.816 234.125 64.088C235.853 62.36 237.797 61.424 240.101 61.424C242.261 61.424 244.133 62 245.717 63.08L250.109 55.376C247.949 53.36 245.069 52.28 241.397 52.28ZM259.063 46.808C260.647 46.808 262.087 46.232 263.239 45.08C264.391 43.928 265.039 42.56 265.039 40.904C265.039 39.32 264.391 37.88 263.239 36.728C262.087 35.576 260.647 35 259.063 35C257.479 35 256.039 35.576 254.887 36.728C253.735 37.88 253.159 39.32 253.159 40.904C253.159 42.56 253.735 43.928 254.887 45.08C256.039 46.232 257.479 46.808 259.063 46.808ZM253.807 89H264.319V53H253.807V89ZM289.308 52.28C285.564 52.28 282.396 52.784 279.948 53.792C277.428 54.8 275.196 56.384 273.18 58.544L279.444 64.52C281.82 61.64 284.772 60.2 288.3 60.2C290.316 60.2 291.972 60.704 293.34 61.64C294.708 62.648 295.428 64.088 295.428 66.032V69.128L290.316 68.336C284.772 67.472 280.452 68.12 277.356 70.208C274.26 72.296 272.748 75.104 272.748 78.704C272.748 82.088 273.828 84.752 275.988 86.768C278.148 88.784 280.956 89.72 284.412 89.72C288.66 89.72 292.62 88.352 296.292 85.472L296.796 89H305.652V66.104C305.652 61.496 304.14 58.04 301.188 55.736C298.164 53.432 294.204 52.28 289.308 52.28ZM283.692 78.128C283.692 76.688 284.34 75.536 285.708 74.744C287.076 74.024 289.38 73.952 292.548 74.528L295.428 75.104V78.776C292.98 80.936 290.532 82.016 288.084 82.016C286.788 82.016 285.708 81.728 284.916 81.008C284.052 80.288 283.692 79.352 283.692 78.128ZM334.999 52.28C330.679 52.28 327.007 53.936 324.055 57.176L323.479 53H314.047V89H324.559V68.12C324.559 66.248 325.207 64.664 326.647 63.368C328.087 62.072 329.815 61.424 331.903 61.424C333.847 61.424 335.431 62 336.727 63.152C337.951 64.304 338.599 65.744 338.599 67.544V89H349.111V66.248C349.111 62.072 347.815 58.688 345.223 56.096C342.631 53.576 339.175 52.28 334.999 52.28Z" fill="black"/>
</svg>
