<svg xmlns="http://www.w3.org/2000/svg" version="1.1" xmlns:xlink="http://www.w3.org/1999/xlink" width="1000" height="1000"><g clip-path="url(#SvgjsClipPath1103)"><rect width="1000" height="1000" fill="#ffffff"></rect><g transform="matrix(3.3472803347280333,0,0,3.3472803347280333,100,100)"><svg xmlns="http://www.w3.org/2000/svg" version="1.1" xmlns:xlink="http://www.w3.org/1999/xlink" width="239" height="239"><svg width="239" height="239" viewBox="0 0 239 239" fill="none" xmlns="http://www.w3.org/2000/svg">
<path fill-rule="evenodd" clip-rule="evenodd" d="M119.5 239C185.498 239 239 185.498 239 119.5C239 53.502 185.498 0 119.5 0C53.502 0 0 53.502 0 119.5C0 185.498 53.502 239 119.5 239ZM119.5 223.825C177.117 223.825 223.825 177.117 223.825 119.5C223.825 61.8827 177.117 15.1746 119.5 15.1746C61.8827 15.1746 15.1746 61.8827 15.1746 119.5C15.1746 177.117 61.8827 223.825 119.5 223.825Z" fill="#159300"></path>
<path d="M66.688 97V124.744C66.688 127.24 65.728 129.352 63.808 131.08C61.888 132.808 59.584 133.672 56.896 133.672C54.304 133.672 52.192 132.808 50.464 131.08C48.736 129.352 47.872 127.24 47.872 124.744V97H33.856V126.472C33.856 131.944 35.68 136.552 39.328 140.296C42.976 144.136 47.488 145.96 52.864 145.96C58.624 145.96 63.424 143.752 67.36 139.336L68.128 145H80.608V97H66.688ZM181.565 96.04C175.805 96.04 170.909 98.248 166.973 102.568L166.205 97H153.629V145H167.645V117.16C167.645 114.664 168.509 112.552 170.429 110.824C172.349 109.096 174.653 108.232 177.437 108.232C180.029 108.232 182.141 109 183.869 110.536C185.501 112.072 186.365 113.992 186.365 116.392V145H200.381V114.664C200.381 109.096 198.653 104.584 195.197 101.128C191.741 97.768 187.133 96.04 181.565 96.04Z" fill="black"></path>
<path d="M144.408 111C144.312 103.992 141.624 98.04 136.44 93.24C131.256 88.44 124.92 86.04 117.624 86.04C110.328 86.232 104.088 88.728 98.904 93.528C93.72 98.424 91.128 104.376 91.224 111.384C91.224 117.72 93.432 123.288 97.848 128.088C102.168 132.888 107.544 135.576 114.072 136.152C115.224 136.344 116.184 136.344 116.952 136.248L99.288 159H115.224L138.648 127.128C142.488 121.656 144.408 116.28 144.408 111ZM118.008 124.344C114.168 124.44 111.096 123.192 108.6 120.696C106.104 118.2 104.856 115.128 104.856 111.288C104.664 107.64 105.816 104.472 108.312 101.88C110.712 99.288 113.784 97.944 117.624 97.848C121.272 97.848 124.344 99.096 126.84 101.592C129.24 104.088 130.488 107.256 130.68 110.904C130.68 114.744 129.528 117.912 127.128 120.504C124.728 123.096 121.656 124.344 118.008 124.344Z" fill="black"></path>
</svg></svg></g></g><defs><clipPath id="SvgjsClipPath1103"><rect width="1000" height="1000" x="0" y="0" rx="350" ry="350"></rect></clipPath></defs></svg>